<svg width="606" height="191" viewBox="0 0 606 191" fill="none" xmlns="http://www.w3.org/2000/svg">
<path d="M228.184 15.0329V112.085C228.247 118.986 226.399 128.906 220.197 137.573C213.348 147.144 202.032 153.917 186.351 153.917C170.67 153.917 159.355 147.144 152.505 137.573C146.232 128.805 144.412 118.755 144.521 111.844L175.054 112.325C175.024 114.269 175.693 117.5 177.34 119.801C178.051 120.795 178.906 121.575 180.033 122.152C181.157 122.727 183.095 123.379 186.351 123.379C189.607 123.379 191.546 122.727 192.67 122.152C193.797 121.575 194.652 120.795 195.363 119.801C197.009 117.5 197.679 114.269 197.648 112.325L197.646 112.205V15.0329H228.184Z" fill="black"/>
<path d="M531.083 190.978H501.423V51.5149H526.958L528.923 61.3362H529.905C534.619 55.0506 544.637 49.5506 558.583 49.5506C584.119 49.5506 605.137 70.5683 605.137 101.604C605.137 132.639 584.119 153.657 558.583 153.657C545.03 153.657 535.405 147.961 532.066 143.639H531.083V190.978ZM553.28 126.354C565.851 126.354 575.476 116.925 575.476 101.604C575.476 86.2825 565.851 77.0504 553.28 77.0504C540.708 77.0504 531.083 86.2825 531.083 101.604C531.083 116.925 540.708 126.354 553.28 126.354Z" fill="black"/>
<path d="M374.308 151.693H344.647V51.5149H370.183L372.147 60.3541H373.129C376.468 55.6398 385.504 49.5506 396.897 49.5506C411.432 49.5506 420.861 57.8006 424.2 63.3005H425.182C429.504 56.8184 440.111 49.5506 455.236 49.5506C476.253 49.5506 492.557 66.6398 492.557 90.2111V151.693H462.896V94.5325C462.896 83.5325 457.2 77.8362 448.754 77.8362C439.914 77.8362 433.432 84.7111 433.432 94.5325V151.693H403.772V94.5325C403.772 83.5325 397.879 77.8362 389.629 77.8362C380.593 77.8362 374.308 84.7111 374.308 94.5325V151.693Z" fill="black"/>
<path d="M278.175 153.662C255.193 153.662 238.89 137.359 238.89 111.823V51.5202H268.55V106.913C268.55 117.716 275.818 125.573 286.818 125.573C297.818 125.573 305.086 117.716 305.086 106.913V51.5202H334.746V151.698H309.211L307.246 142.859H306.264C301.55 148.359 291.336 153.662 278.175 153.662Z" fill="black"/>
<ellipse cx="58.75" cy="95.0879" rx="58.75" ry="58.7499" fill="black"/>
<ellipse cx="139.185" cy="31.25" rx="30.2715" ry="30.2715" fill="black"/>
</svg>
